<?xml version="1.0" encoding="UTF-8" standalone="no"?>
<!-- Created with Inkscape (http://www.inkscape.org/) -->

<svg
   xmlns:dc="http://purl.org/dc/elements/1.1/"
   xmlns:cc="http://creativecommons.org/ns#"
   xmlns:rdf="http://www.w3.org/1999/02/22-rdf-syntax-ns#"
   xmlns:svg="http://www.w3.org/2000/svg"
   xmlns="http://www.w3.org/2000/svg"
   xmlns:sodipodi="http://sodipodi.sourceforge.net/DTD/sodipodi-0.dtd"
   xmlns:inkscape="http://www.inkscape.org/namespaces/inkscape"
   width="210mm"
   height="297mm"
   viewBox="0 0 210 297"
   version="1.1"
   id="svg8"
   inkscape:export-filename="/home/jedi/bitmap.png"
   inkscape:export-xdpi="96"
   inkscape:export-ydpi="96"
   inkscape:version="0.92.3 (2405546, 2018-03-11)"
   sodipodi:docname="logo.svg">
  <defs
     id="defs2" />
  <sodipodi:namedview
     id="base"
     pagecolor="#ffffff"
     bordercolor="#666666"
     borderopacity="1.0"
     inkscape:pageopacity="0.0"
     inkscape:pageshadow="2"
     inkscape:zoom="0.98994949"
     inkscape:cx="329.5743"
     inkscape:cy="547.28364"
     inkscape:document-units="mm"
     inkscape:current-layer="layer1"
     showgrid="false"
     inkscape:window-width="1920"
     inkscape:window-height="1002"
     inkscape:window-x="0"
     inkscape:window-y="27"
     inkscape:window-maximized="1" />
  <metadata
     id="metadata5">
    <rdf:RDF>
      <cc:Work
         rdf:about="">
        <dc:format>image/svg+xml</dc:format>
        <dc:type
           rdf:resource="http://purl.org/dc/dcmitype/StillImage" />
        <dc:title />
      </cc:Work>
    </rdf:RDF>
  </metadata>
  <g
     inkscape:label="Layer 1"
     inkscape:groupmode="layer"
     id="layer1">
    <path
       style="fill:#000000;fill-opacity:1;stroke:none;stroke-width:1.48738432;stroke-miterlimit:4;stroke-dasharray:none;stroke-opacity:1"
       d="M 22.126141,44.081684 H 187.87394 c 11.93573,0 21.54464,9.608911 21.54464,21.544644 V 231.37412 c 0,11.93574 -9.60891,21.54465 -21.54464,21.54465 H 22.126141 c -11.935733,0 -21.54464381,-9.60891 -21.54464381,-21.54465 V 65.626328 c 0,-11.935733 9.60891081,-21.544644 21.54464381,-21.544644 z"
       id="rect825-3" />
    <path
       style="fill:#ffffff;fill-opacity:1;stroke:none;stroke-width:5.62161016;stroke-miterlimit:4;stroke-dasharray:none;stroke-opacity:1"
       d="M 304.45312 532.45898 L 2.1972656 617.47266 L 2.1972656 658.89453 L 315.53906 570.75977 L 304.45312 532.45898 z "
       transform="scale(0.26458333)"
       id="rect825" />
    <path
       style="fill:#ff0000;stroke-width:0.2278731"
       d="m 114.44486,126.3637 74.40186,-15.14023 -11.94032,28.22698 -65.23259,1.62913 z"
       id="rect817"
       inkscape:connector-curvature="0"
       sodipodi:nodetypes="ccccc" />
    <path
       style="fill:#00d900;fill-opacity:1;stroke-width:0.2278731"
       d="m 122.88701,135.59947 75.74608,-5.23402 -15.54531,26.41357 -64.88119,-6.95529 z"
       id="rect817-3"
       inkscape:connector-curvature="0"
       sodipodi:nodetypes="ccccc"
       inkscape:transform-center-x="-2.8341172"
       inkscape:transform-center-y="-11.44785" />
    <path
       style="fill:#1919ff;fill-opacity:1;stroke-width:0.2278731"
       d="m 129.60032,149.82373 75.92268,-0.78128 -17.06811,25.4561 -64.36141,-10.74964 z"
       id="rect817-3-6"
       inkscape:connector-curvature="0"
       sodipodi:nodetypes="ccccc"
       inkscape:transform-center-x="-3.7048586"
       inkscape:transform-center-y="-9.3587059" />
    <path
       transform="rotate(-11.06451,255.04523,-71.902762)"
       style="fill:#ffffff;stroke:none;stroke-width:3;stroke-miterlimit:4;stroke-dasharray:none;stroke-opacity:1"
       inkscape:transform-center-x="-4.5069475"
       inkscape:transform-center-y="-10.601918"
       d="M 126.24404,194.19046 -20.374349,165.44778 77.826737,52.843866 Z"
       id="path815" />
    <g
       aria-label="µgl"
       transform="matrix(1.5736562,0,0,1.5736562,-334.73499,-763.74569)"
       style="font-style:normal;font-weight:normal;font-size:40px;line-height:1.25;font-family:sans-serif;letter-spacing:0px;word-spacing:0px;fill:#000000;fill-opacity:1;stroke:none"
       id="flowRoot850">
      <path
         d="m 274.02773,608.86922 c 0,-1.24 -0.96,-1.24 -1.72,-1.24 h -2.04 v -13.04 c 0,-1.4 -0.28,-1.72 -1.72,-1.72 h -3.12 c -0.72,0 -1.72,0 -1.72,1.2 0,1.24 0.96,1.24 1.72,1.24 h 2.04 v 8.44 c 0,0.84 0,2.12 -1.52,3.16 -1.48,0.96 -3.12,0.96 -3.64,0.96 -3.64,0 -3.64,-1.32 -3.64,-2.68 v -10.6 c 0,-1.4 -0.28,-1.72 -1.72,-1.72 h -3.12 c -0.72,0 -1.72,0 -1.72,1.2 0,1.24 0.96,1.24 1.72,1.24 h 2.04 v 21.2 h -2.04 c -0.72,0 -1.72,0 -1.72,1.2 0,1.24 0.96,1.24 1.72,1.24 h 6.88 c 0.72,0 1.72,0 1.72,-1.2 0,-1.24 -0.96,-1.24 -1.72,-1.24 h -2.04 v -6.68 c 0.2,0.08 1.36,0.48 3.36,0.48 3,0 4.72,-1.08 5.4,-1.6 0,1.36 1.04,1.36 1.76,1.36 h 3.12 c 0.72,0 1.72,0 1.72,-1.2 z"
         style="font-style:normal;font-variant:normal;font-weight:normal;font-stretch:normal;font-family:'Latin Modern Mono Prop';-inkscape-font-specification:'Latin Modern Mono Prop';stroke:none"
         id="path1954" />
      <path
         d="m 295.14711,594.54922 c 0,-0.92 -0.76,-2.16 -2.92,-2.16 -0.44,0 -2.4,0.04 -4.24,1.4 -0.64,-0.44 -2.04,-1.2 -3.88,-1.2 -3.76,0 -6.6,3 -6.6,6.4 0,1.72 0.68,3.04 1.28,3.8 -0.44,0.64 -0.8,1.52 -0.8,2.72 0,1.4 0.56,2.4 0.92,2.88 -2.96,1.8 -2.96,4.52 -2.96,4.96 0,3.44 4.2,5.88 9.32,5.88 5.12,0 9.32,-2.48 9.32,-5.88 0,-1.48 -0.72,-3.48 -2.76,-4.56 -0.52,-0.28 -2.2,-1.16 -5.8,-1.16 h -2.8 c -0.32,0 -0.84,0 -1.16,-0.08 -0.6,0 -0.84,0 -1.32,-0.56 -0.44,-0.56 -0.48,-1.44 -0.48,-1.44 0,-0.16 0.08,-0.72 0.24,-1.12 0.12,0.08 1.64,1 3.6,1 3.68,0 6.6,-2.88 6.6,-6.44 0,-1.2 -0.36,-2.36 -1.04,-3.48 0.84,-0.48 1.8,-0.64 2.32,-0.68 0.24,1.08 1.16,1.36 1.56,1.36 0.68,0 1.6,-0.48 1.6,-1.64 z m -7.2,4.44 c 0,2.28 -1.76,4.04 -3.84,4.04 -2.16,0 -3.84,-1.88 -3.84,-4 0,-2.28 1.76,-4.04 3.84,-4.04 2.16,0 3.84,1.88 3.84,4 z m 4.32,14.36 c 0,1.76 -3,3.48 -7,3.48 -4,0 -7,-1.72 -7,-3.48 0,-0.72 0.36,-2 1.64,-2.8 1,-0.64 1.36,-0.64 4.28,-0.64 3.56,0 8.08,0 8.08,3.44 z"
         style="font-style:normal;font-variant:normal;font-weight:normal;font-stretch:normal;font-family:'Latin Modern Mono Prop';-inkscape-font-specification:'Latin Modern Mono Prop';stroke:none"
         id="path1956" />
      <path
         d="m 306.76273,608.86922 c 0,-1.24 -0.96,-1.24 -1.6,-1.24 h -2.16 v -20.36 c 0,-1.24 -0.24,-1.64 -1.6,-1.64 h -3.32 c -0.64,0 -1.6,0 -1.6,1.24 0,1.2 1,1.2 1.6,1.2 h 2.16 v 19.56 h -2.16 c -0.64,0 -1.6,0 -1.6,1.24 0,1.2 1,1.2 1.6,1.2 h 7.08 c 0.6,0 1.6,0 1.6,-1.2 z"
         style="font-style:normal;font-variant:normal;font-weight:normal;font-stretch:normal;font-family:'Latin Modern Mono Prop';-inkscape-font-specification:'Latin Modern Mono Prop';stroke:none"
         id="path1958" />
    </g>
  </g>
</svg>
