<?xml version="1.0" encoding="UTF-8" standalone="no"?>
<!-- Created with Inkscape (http://www.inkscape.org/) -->

<svg
   xmlns:dc="http://purl.org/dc/elements/1.1/"
   xmlns:cc="http://creativecommons.org/ns#"
   xmlns:rdf="http://www.w3.org/1999/02/22-rdf-syntax-ns#"
   xmlns:svg="http://www.w3.org/2000/svg"
   xmlns="http://www.w3.org/2000/svg"
   xmlns:sodipodi="http://sodipodi.sourceforge.net/DTD/sodipodi-0.dtd"
   xmlns:inkscape="http://www.inkscape.org/namespaces/inkscape"
   width="210mm"
   height="297mm"
   viewBox="0 0 210 297"
   version="1.1"
   id="svg8"
   inkscape:export-filename="/home/jedi/Projekte/µgl_meta/gen/logo-outline.png"
   inkscape:export-xdpi="96"
   inkscape:export-ydpi="96"
   inkscape:version="0.92.3 (2405546, 2018-03-11)"
   sodipodi:docname="logo-outline.svg">
  <defs
     id="defs2" />
  <sodipodi:namedview
     id="base"
     pagecolor="#ffffff"
     bordercolor="#666666"
     borderopacity="1.0"
     inkscape:pageopacity="0.0"
     inkscape:pageshadow="2"
     inkscape:zoom="0.7"
     inkscape:cx="17.544604"
     inkscape:cy="834.95612"
     inkscape:document-units="mm"
     inkscape:current-layer="layer1"
     showgrid="false"
     inkscape:window-width="1920"
     inkscape:window-height="1002"
     inkscape:window-x="0"
     inkscape:window-y="27"
     inkscape:window-maximized="1" />
  <metadata
     id="metadata5">
    <rdf:RDF>
      <cc:Work
         rdf:about="">
        <dc:format>image/svg+xml</dc:format>
        <dc:type
           rdf:resource="http://purl.org/dc/dcmitype/StillImage" />
        <dc:title />
      </cc:Work>
    </rdf:RDF>
  </metadata>
  <g
     inkscape:label="Layer 1"
     inkscape:groupmode="layer"
     id="layer1">
    <path
       style="color:#000000;font-style:normal;font-variant:normal;font-weight:normal;font-stretch:normal;font-size:medium;line-height:normal;font-family:sans-serif;font-variant-ligatures:normal;font-variant-position:normal;font-variant-caps:normal;font-variant-numeric:normal;font-variant-alternates:normal;font-feature-settings:normal;text-indent:0;text-align:start;text-decoration:none;text-decoration-line:none;text-decoration-style:solid;text-decoration-color:#000000;letter-spacing:normal;word-spacing:normal;text-transform:none;writing-mode:lr-tb;direction:ltr;text-orientation:mixed;dominant-baseline:auto;baseline-shift:baseline;text-anchor:start;white-space:normal;shape-padding:0;clip-rule:nonzero;display:inline;overflow:visible;visibility:visible;opacity:1;isolation:auto;mix-blend-mode:normal;color-interpolation:sRGB;color-interpolation-filters:linearRGB;solid-color:#000000;solid-opacity:1;vector-effect:none;fill:#000000;fill-opacity:1;fill-rule:nonzero;stroke:none;stroke-width:11.33858299;stroke-linecap:butt;stroke-linejoin:miter;stroke-miterlimit:4;stroke-dasharray:none;stroke-dashoffset:0;stroke-opacity:1;color-rendering:auto;image-rendering:auto;shape-rendering:auto;text-rendering:auto;enable-background:accumulate"
       d="m 83.628906,160.93945 c -48.154153,0 -87.097656,38.94546 -87.097656,87.09961 0,41.05869 -2.438e-4,429.73237 0,626.44922 5.97e-5,48.15417 38.943503,87.0918 87.097656,87.0918 H 710.07227 c 48.15412,0 87.09765,-38.93763 87.09765,-87.0918 V 248.03906 c 0,-48.15415 -38.94353,-87.09961 -87.09765,-87.09961 z m 0,11.33985 H 710.07227 c 42.06871,0 75.75976,33.69106 75.75976,75.75976 v 309.50977 l -67.07617,0.68945 42.32422,-71.91992 -71.15039,4.91602 33.23633,-78.56446 L 485.2793,461.08203 397.08984,308.16797 264.33594,537.85352 7.8691406,609.98828 V 248.03906 c 0,-42.0687 33.6910614,-75.75976 75.7597654,-75.75976 z M 397.07812,330.8418 669.38281,803.00586 124.32422,802.75391 Z M 704.33594,428.07617 677.25,492.11133 509.8457,503.67773 491.25195,471.4375 Z m 36.06054,71.03516 -34.8789,59.26367 -163.1582,1.67773 -26.20899,-45.44531 z M 256.20703,551.91797 235.74805,587.31445 7.8691406,651.41016 v -29.64258 z m 529.625,8.06836 v 314.50195 c 0,42.06871 -33.69105,75.75195 -75.75976,75.75195 H 83.628906 c -42.068704,0 -75.7597654,-33.68324 -75.7597654,-75.75195 V 663.18945 l 219.7499994,-61.8125 -122.9375,212.70117 584.33984,0.27344 -4.90429,-8.50195 -92.72266,-160.77149 123.54883,20.63477 z m -19.75391,9.10547 -56.47851,84.23437 -125.53711,-20.96484 -35.20117,-61.03321 z m -258.31835,27.44336 c -3.80652,0 -9.51563,-1.5e-4 -9.51563,7.375 0,7.13718 5.947,7.13867 9.51563,7.13867 h 12.84765 v 116.33594 h -12.84765 c -3.80652,0 -9.51563,-1.1e-4 -9.51563,7.375 0,7.13722 5.947,7.13671 9.51563,7.13671 h 42.10937 c 3.56863,0 9.51563,5.1e-4 9.51563,-7.13671 0,-7.37511 -5.70912,-7.375 -9.51563,-7.375 H 537.02148 V 606.28906 c 0,-7.3751 -1.42675,-9.7539 -9.51562,-9.7539 z m -34.82813,40.20703 c -2.61698,0 -14.27306,0.23753 -25.2168,8.32617 -3.80651,-2.61698 -12.13442,-7.13672 -23.07812,-7.13672 -22.36328,0 -39.25391,17.84236 -39.25391,38.06445 0,10.23001 4.04469,18.08133 7.61328,22.60157 -2.61694,3.80651 -4.75781,9.04051 -4.75781,16.17773 0,8.32675 3.32956,14.274 5.4707,17.12891 -17.60511,10.70581 -17.60546,26.88301 -17.60546,29.5 0,20.46002 24.98148,34.97265 55.43359,34.97265 30.45211,0 55.43164,-14.75056 55.43164,-34.97265 0,-8.80256 -4.28275,-20.6976 -16.41602,-27.1211 -3.09278,-1.66533 -13.08446,-6.89843 -34.49609,-6.89843 h -16.6543 c -1.90325,0 -4.99518,-7.6e-4 -6.89843,-0.47657 -3.56863,0 -4.99666,6.3e-4 -7.85157,-3.33008 -2.61698,-3.3307 -2.85351,-8.56445 -2.85351,-8.56445 0,-0.95161 0.47417,-4.28305 1.42578,-6.66211 0.71373,0.47581 9.75465,5.94727 21.41211,5.94727 21.88743,0 39.25586,-17.12899 39.25586,-38.30274 0,-7.13722 -2.14111,-14.03588 -6.18555,-20.69726 4.99605,-2.85491 10.706,-3.807 13.79883,-4.04492 1.42741,6.42349 6.89828,8.08984 9.27734,8.08984 4.04444,0 9.51563,-2.85656 9.51563,-9.75586 0,-5.47189 -4.5202,-12.8457 -17.36719,-12.8457 z m -228.38672,2.85547 c -4.28232,0 -10.23047,-5.1e-4 -10.23047,7.13672 0,7.3751 5.71024,7.37499 10.23047,7.375 h 12.13281 v 126.08984 h -12.13281 c -4.28232,0 -10.23047,10e-4 -10.23047,7.13867 0,7.37514 5.71024,7.375 10.23047,7.375 h 40.91992 c 4.28233,0 10.23047,-10e-4 10.23047,-7.13867 0,-7.37511 -5.71023,-7.375 -10.23047,-7.375 h -12.13281 v -39.73047 c 1.18954,0.47584 8.08902,2.85547 19.98438,2.85547 17.84302,0 28.07276,-6.42284 32.11718,-9.51563 0,8.08884 6.18643,8.08789 10.46875,8.08789 h 18.55664 c 4.28233,0 10.22852,5.1e-4 10.22852,-7.13671 0,-7.37511 -5.70828,-7.375 -10.22852,-7.375 h -12.13476 v -77.5586 c 0,-8.32675 -1.66386,-10.22851 -10.22852,-10.22851 h -18.55664 c -4.28232,0 -10.23047,-5.1e-4 -10.23047,7.13672 0,7.3751 5.71024,7.37499 10.23047,7.375 h 12.13282 v 50.19726 c 0,4.99604 -5.5e-4,12.60931 -9.04102,18.79492 -8.80256,5.70977 -18.55565,5.71094 -21.64844,5.71094 -21.64954,0 -21.65039,-7.85062 -21.65039,-15.93945 v -63.04688 c 0,-8.32675 -1.66581,-10.22851 -10.23047,-10.22851 z m 180.0918,12.60742 c 12.84695,0 22.83984,11.18194 22.83984,23.79101 0,13.56072 -10.46869,24.0293 -22.83984,24.0293 -12.84699,0 -22.83789,-11.18194 -22.83789,-23.79101 0,-13.56072 10.4667,-24.0293 22.83789,-24.0293 z m 0.47656,88.74023 c 21.17371,0 48.05664,-9.9e-4 48.05664,20.45899 0,10.46793 -17.84212,20.69922 -41.63281,20.69922 -23.79073,0 -41.63477,-10.23129 -41.63477,-20.69922 0,-4.28232 2.14088,-11.89422 9.75391,-16.65235 5.94769,-3.80651 8.0898,-3.80664 25.45703,-3.80664 z"
       transform="scale(0.26458333)"
       id="rect825-3"
       inkscape:connector-curvature="0"
       sodipodi:nodetypes="sssssssssssscccccccccssccccccccccccccccccccsssscccccccccccccsssccsssssscsssscsscscssscssccccssccssssscccssssssccscsssscssssccscssssssssssasssca" />
  </g>
</svg>
